<?xml version="1.0" encoding="utf-8"?>
<!-- Generator: Adobe Illustrator 22.1.0, SVG Export Plug-In . SVG Version: 6.00 Build 0)  -->
<svg version="1.1" id="图层_1" xmlns="http://www.w3.org/2000/svg" xmlns:xlink="http://www.w3.org/1999/xlink" x="0px" y="0px"
	 viewBox="0 0 42 42" style="enable-background:new 0 0 42 42;" xml:space="preserve">
<style type="text/css">
	.st0{display:none;}
	.st1{display:inline;fill:#FABF13;}
	.st2{display:inline;}
	.st3{fill:#F0831E;}
	.st4{fill:#FFFFFF;}
	.st5{fill:#EA5550;}
	.st6{fill:#69BD83;}
	.st7{fill:#FABF13;}
	.st8{fill:#CF3632;}
	.st9{fill:#34403F;}
</style>
<g class="st0">
	<path class="st1" d="M37.8,42H4.2c-2.3,0-4.1-1.9-4.1-4.1V4.2c0-2.3,1.9-4.1,4.1-4.1h33.6c2.3,0,4.1,1.9,4.1,4.1v33.6
		C42,40.1,40.1,42,37.8,42z"/>
	<g class="st2">
		<path class="st3" d="M28.9,29.9H10.3c-0.6,0-1-0.4-1-1V15.2c0-0.6,0.4-1,1-1h18.6c0.6,0,1,0.4,1,1v13.8
			C29.9,29.5,29.5,29.9,28.9,29.9z"/>
		<path class="st3" d="M28.4,21.6l5.3-5.3c0.3-0.3,0.8-0.1,0.8,0.3v10.6c0,0.4-0.5,0.7-0.8,0.3l-5.3-5.3
			C28.2,22.1,28.2,21.8,28.4,21.6z"/>
		<g>
			<circle class="st3" cx="14.2" cy="18" r="1"/>
			<circle class="st3" cx="17.6" cy="18" r="1"/>
		</g>
	</g>
	<g class="st2">
		<path class="st4" d="M28.9,27.8H10.3c-0.6,0-1-0.4-1-1V13c0-0.6,0.4-1,1-1h18.6c0.6,0,1,0.4,1,1v13.8
			C29.9,27.3,29.5,27.8,28.9,27.8z"/>
		<path class="st4" d="M28.4,19.4l5.3-5.3c0.3-0.3,0.8-0.1,0.8,0.3v10.6c0,0.4-0.5,0.7-0.8,0.3l-5.3-5.3
			C28.2,19.9,28.2,19.6,28.4,19.4z"/>
		<g>
			<circle class="st5" cx="14.2" cy="15.9" r="1"/>
			<circle class="st6" cx="17.6" cy="15.9" r="1"/>
		</g>
	</g>
</g>
<path class="st7" d="M37.8,41.9H4.2c-2.3,0-4.1-1.9-4.1-4.1V4.2C0,1.9,1.9,0,4.2,0h33.6c2.3,0,4.1,1.9,4.1,4.1v33.6
	C41.9,40.1,40.1,41.9,37.8,41.9z"/>
<path class="st8" d="M27.7,36.8H11.5c-0.6,0-1-0.4-1-1v-12c0-0.6,0.4-1,1-1h16.3c0.6,0,1,0.4,1,1v12C28.7,36.3,28.3,36.8,27.7,36.8z
	"/>
<path class="st8" d="M29.7,29.2l3.5-3.5c0.2-0.2,0.6-0.1,0.6,0.2l0,7.1c0,0.3-0.3,0.4-0.6,0.2l-3.5-3.5
	C29.6,29.5,29.6,29.3,29.7,29.2z"/>
<g>
	<circle class="st3" cx="14.8" cy="26.2" r="0.9"/>
	<circle class="st3" cx="17.8" cy="26.2" r="0.9"/>
</g>
<path class="st4" d="M27.7,34.8H11.5c-0.6,0-1-0.4-1-1v-12c0-0.6,0.4-1,1-1h16.3c0.6,0,1,0.4,1,1v12C28.7,34.4,28.3,34.8,27.7,34.8z
	"/>
<path class="st4" d="M29.7,27.7l3.5-3.5c0.2-0.2,0.6-0.1,0.6,0.2l0,7.1c0,0.3-0.3,0.4-0.6,0.2l-3.5-3.5
	C29.6,28.1,29.6,27.9,29.7,27.7z"/>
<g>
	<circle class="st3" cx="14.8" cy="31" r="0.9"/>
	<circle class="st3" cx="17.8" cy="31" r="0.9"/>
</g>
<circle class="st7" cx="12.4" cy="15.1" r="10.8"/>
<circle class="st8" cx="12.4" cy="16.1" r="9.5"/>
<circle class="st3" cx="12.4" cy="15.1" r="9.5"/>
<circle class="st9" cx="12.4" cy="15.1" r="8.2"/>
<path class="st8" d="M13.2,15.1c0,0.4-0.3,0.8-0.8,0.8c-0.4,0-0.8-0.3-0.8-0.8c0-0.4,0.3-0.8,0.8-0.8C12.8,14.4,13.2,14.7,13.2,15.1
	z M12.4,8.3c-1.2,0-2.1,0.9-2.1,2.1s0.9,2.1,2.1,2.1s2.1-0.9,2.1-2.1S13.6,8.3,12.4,8.3z M14.5,19.8c0,1.2-0.9,2.1-2.1,2.1
	s-2.1-0.9-2.1-2.1c0-1.2,0.9-2.1,2.1-2.1S14.5,18.6,14.5,19.8z M17.1,17.3c-1.2,0-2.1-0.9-2.1-2.1s0.9-2.1,2.1-2.1s2.1,0.9,2.1,2.1
	S18.3,17.3,17.1,17.3z M7.7,17.3c-1.2,0-2.1-0.9-2.1-2.1S6.6,13,7.7,13s2.1,0.9,2.1,2.1S8.9,17.3,7.7,17.3z"/>
<g>
	<path class="st7" d="M12.4,15.9c0.3,0,0.6-0.2,0.7-0.5c-0.1-0.3-0.4-0.5-0.7-0.5s-0.6,0.2-0.7,0.5C11.8,15.7,12.1,15.9,12.4,15.9z"
		/>
	<ellipse class="st7" cx="12.4" cy="20.1" rx="2.1" ry="1.9"/>
	<path class="st7" d="M17.1,13.5c-1.1,0-2,0.8-2.1,1.9c0.1,1,1,1.9,2.1,1.9c1.1,0,2-0.8,2.1-1.9C19,14.4,18.2,13.5,17.1,13.5z"/>
	<path class="st7" d="M5.6,15.4c0.1,1,1,1.9,2.1,1.9s2-0.8,2.1-1.9c-0.1-1-1-1.9-2.1-1.9S5.8,14.4,5.6,15.4z"/>
	<ellipse class="st7" cx="12.4" cy="10.7" rx="2.1" ry="1.9"/>
</g>
<circle class="st8" cx="30.7" cy="14.2" r="7.1"/>
<circle class="st3" cx="30.8" cy="13.6" r="7.1"/>
<circle class="st9" cx="30.8" cy="13.6" r="6.2"/>
<circle class="st7" cx="30.8" cy="13.6" r="0.6"/>
<path class="st8" d="M32.4,10.1c0,0.9-0.7,1.6-1.6,1.6c-0.9,0-1.6-0.7-1.6-1.6c0-0.9,0.7-1.6,1.6-1.6C31.7,8.5,32.4,9.2,32.4,10.1z
	 M30.8,15.5c-0.9,0-1.6,0.7-1.6,1.6c0,0.9,0.7,1.6,1.6,1.6c0.9,0,1.6-0.7,1.6-1.6C32.4,16.2,31.7,15.5,30.8,15.5z M35.9,13.6
	c0-0.9-0.7-1.6-1.6-1.6s-1.6,0.7-1.6,1.6c0,0.9,0.7,1.6,1.6,1.6S35.9,14.4,35.9,13.6z M28.9,13.6c0-0.9-0.7-1.6-1.6-1.6
	c-0.9,0-1.6,0.7-1.6,1.6c0,0.9,0.7,1.6,1.6,1.6C28.2,15.2,28.9,14.4,28.9,13.6z"/>
<g>
	<path class="st7" d="M30.8,18.7c0.8,0,1.5-0.6,1.6-1.4c-0.1-0.8-0.8-1.4-1.6-1.4c-0.8,0-1.5,0.6-1.6,1.4
		C29.3,18.1,30,18.7,30.8,18.7z"/>
	<path class="st7" d="M34.3,12.4c-0.8,0-1.5,0.6-1.6,1.4c0.1,0.8,0.8,1.4,1.6,1.4c0.8,0,1.5-0.6,1.6-1.4
		C35.8,13,35.1,12.4,34.3,12.4z"/>
	<path class="st7" d="M30.8,8.9c-0.8,0-1.5,0.6-1.6,1.4c0.1,0.8,0.8,1.4,1.6,1.4s1.5-0.6,1.6-1.4C32.3,9.5,31.6,8.9,30.8,8.9z"/>
	<path class="st7" d="M25.7,13.8c0.1,0.8,0.8,1.4,1.6,1.4c0.8,0,1.5-0.6,1.6-1.4c-0.1-0.8-0.8-1.4-1.6-1.4
		C26.5,12.4,25.8,13,25.7,13.8z"/>
</g>
</svg>
